<svg width="12" height="13" viewBox="0 0 12 13" fill="none" xmlns="http://www.w3.org/2000/svg">
<path d="M1 12.2754C1 12.2754 0 12.2754 0 11.2754C0 10.2754 1 7.27539 6 7.27539C11 7.27539 12 10.2754 12 11.2754C12 12.2754 11 12.2754 11 12.2754H1ZM6 6.27539C6.79565 6.27539 7.55871 5.95932 8.12132 5.39671C8.68393 4.8341 9 4.07104 9 3.27539C9 2.47974 8.68393 1.71668 8.12132 1.15407C7.55871 0.591461 6.79565 0.275391 6 0.275391C5.20435 0.275391 4.44129 0.591461 3.87868 1.15407C3.31607 1.71668 3 2.47974 3 3.27539C3 4.07104 3.31607 4.8341 3.87868 5.39671C4.44129 5.95932 5.20435 6.27539 6 6.27539Z" fill="white"/>
</svg>
