<svg width="71" height="71" viewBox="0 0 71 71" fill="none" xmlns="http://www.w3.org/2000/svg">
<circle cx="35.5" cy="35.5" r="35" stroke="#6368A0"/>
<path d="M34.5535 48C33.5416 48 32.7213 47.1797 32.7213 46.1678L32.7213 23.8322C32.7213 22.8203 33.5416 22 34.5535 22C35.5654 22 36.3857 22.8203 36.3857 23.8322L36.3857 46.1678C36.3857 47.1797 35.5654 48 34.5535 48Z" fill="#6368A0"/>
<path d="M48 35.447C48 36.4589 47.1797 37.2792 46.1678 37.2792L23.8322 37.2792C22.8203 37.2792 22 36.4589 22 35.447C22 34.4351 22.8203 33.6147 23.8322 33.6147L46.1678 33.6147C47.1797 33.6147 48 34.4351 48 35.447Z" fill="#6368A0"/>
</svg>
