<svg width="56" height="50" viewBox="0 0 56 50" fill="none" xmlns="http://www.w3.org/2000/svg">
<path d="M27.715 35.051C27.2184 35.051 26.733 35.1972 26.3202 35.4709C25.9073 35.7447 25.5856 36.1338 25.3955 36.589C25.2055 37.0443 25.1558 37.5452 25.2527 38.0285C25.3495 38.5118 25.5886 38.9558 25.9398 39.3042C26.2909 39.6526 26.7382 39.8899 27.2252 39.986C27.7122 40.0822 28.217 40.0328 28.6757 39.8443C29.1344 39.6557 29.5265 39.3364 29.8024 38.9266C30.0782 38.5169 30.2255 38.0352 30.2255 37.5425C30.2255 36.8817 29.961 36.248 29.4902 35.7808C29.0194 35.3135 28.3808 35.051 27.715 35.051ZM54.5022 38.7135L34.2925 3.8334C33.6393 2.67118 32.6852 1.70311 31.5289 1.02921C30.3726 0.355305 29.0559 0 27.715 0C26.374 0 25.0573 0.355305 23.901 1.02921C22.7447 1.70311 21.7906 2.67118 21.1374 3.8334L1.05321 38.7135C0.377367 39.8446 0.0142118 41.1327 0.000408715 42.4477C-0.0133944 43.7626 0.322643 45.0579 0.974595 46.2028C1.62655 47.3477 2.57133 48.3016 3.71357 48.9683C4.85581 49.6349 6.15506 49.9907 7.48015 49.9996H47.9498C49.2855 50.0127 50.6007 49.673 51.7605 49.0153C52.9203 48.3576 53.883 47.4057 54.5499 46.2571C55.2167 45.1084 55.5638 43.8045 55.5554 42.4789C55.547 41.1532 55.1835 39.8537 54.5022 38.7135ZM50.159 43.6963C49.939 44.0849 49.6179 44.4077 49.2293 44.6312C48.8408 44.8547 48.3989 44.9706 47.9498 44.9669H7.48015C7.03104 44.9706 6.58916 44.8547 6.20058 44.6312C5.812 44.4077 5.49094 44.0849 5.27089 43.6963C5.05054 43.3176 4.93454 42.8879 4.93454 42.4506C4.93454 42.0133 5.05054 41.5836 5.27089 41.2049L25.3551 6.32483C25.5657 5.91673 25.8858 5.57424 26.2801 5.33509C26.6743 5.09593 27.1274 4.96939 27.5894 4.96939C28.0515 4.96939 28.5046 5.09593 28.8988 5.33509C29.293 5.57424 29.6131 5.91673 29.8238 6.32483L50.0335 41.2049C50.2826 41.5782 50.4257 42.0112 50.4478 42.4584C50.4699 42.9056 50.3701 43.3504 50.159 43.7461V43.6963ZM27.715 15.1196C27.0491 15.1196 26.4106 15.3821 25.9398 15.8493C25.4689 16.3165 25.2044 16.9502 25.2044 17.611V27.5767C25.2044 28.2375 25.4689 28.8712 25.9398 29.3385C26.4106 29.8057 27.0491 30.0682 27.715 30.0682C28.3808 30.0682 29.0194 29.8057 29.4902 29.3385C29.961 28.8712 30.2255 28.2375 30.2255 27.5767V17.611C30.2255 16.9502 29.961 16.3165 29.4902 15.8493C29.0194 15.3821 28.3808 15.1196 27.715 15.1196Z" fill="white"/>
</svg>
