<svg width="113" height="113" viewBox="0 0 113 113" fill="none" xmlns="http://www.w3.org/2000/svg">
<g filter="url(#filter0_d)">
<path d="M56.5 86.42C44.375 86.42 33.6565 80.212 27.4 70.9C27.5455 61.2 46.8 55.865 56.5 55.865C66.2 55.865 85.4545 61.2 85.6 70.9C82.3936 75.6744 78.0624 79.5871 72.9879 82.2935C67.9133 84.9999 62.2511 86.417 56.5 86.42ZM56.5 17.55C60.3589 17.55 64.0597 19.0829 66.7884 21.8116C69.5171 24.5403 71.05 28.2411 71.05 32.1C71.05 35.9589 69.5171 39.6598 66.7884 42.3884C64.0597 45.1171 60.3589 46.65 56.5 46.65C52.6411 46.65 48.9402 45.1171 46.2116 42.3884C43.4829 39.6598 41.95 35.9589 41.95 32.1C41.95 28.2411 43.4829 24.5403 46.2116 21.8116C48.9402 19.0829 52.6411 17.55 56.5 17.55ZM56.5 3C50.1309 3 43.8241 4.25449 37.9399 6.69184C32.0556 9.1292 26.709 12.7017 22.2053 17.2053C13.1098 26.3008 8 38.637 8 51.5C8 64.363 13.1098 76.6992 22.2053 85.7947C26.709 90.2983 32.0556 93.8708 37.9399 96.3082C43.8241 98.7455 50.1309 100 56.5 100C69.363 100 81.6992 94.8902 90.7947 85.7947C99.8902 76.6992 105 64.363 105 51.5C105 24.6795 83.175 3 56.5 3Z" fill="#9094C1"/>
</g>
<defs>
<filter id="filter0_d" x="0.24" y="0.24" width="112.52" height="112.52" filterUnits="userSpaceOnUse" color-interpolation-filters="sRGB">
<feFlood flood-opacity="0" result="BackgroundImageFix"/>
<feColorMatrix in="SourceAlpha" type="matrix" values="0 0 0 0 0 0 0 0 0 0 0 0 0 0 0 0 0 0 127 0" result="hardAlpha"/>
<feOffset dy="5"/>
<feGaussianBlur stdDeviation="3.88"/>
<feColorMatrix type="matrix" values="0 0 0 0 0 0 0 0 0 0 0 0 0 0 0 0 0 0 0.25 0"/>
<feBlend mode="normal" in2="BackgroundImageFix" result="effect1_dropShadow"/>
<feBlend mode="normal" in="SourceGraphic" in2="effect1_dropShadow" result="shape"/>
</filter>
</defs>
</svg>
