<svg width="21" height="16" viewBox="0 0 21 16" fill="none" xmlns="http://www.w3.org/2000/svg">
<path d="M16.8964 0.546645C17.2396 0.200157 17.7061 0.0036427 18.1939 5.01328e-05C18.6816 -0.00354243 19.1509 0.186079 19.4993 0.527473C19.8476 0.868867 20.0466 1.33427 20.0529 1.82198C20.0591 2.30968 19.8721 2.78003 19.5326 3.13023L9.70943 15.4104C9.54068 15.5921 9.33704 15.7379 9.11068 15.8392C8.88432 15.9404 8.63988 15.995 8.39195 15.9997C8.14402 16.0044 7.8977 15.959 7.66768 15.8664C7.43766 15.7737 7.22867 15.6357 7.05318 15.4605L0.540344 8.95018C0.19425 8.60392 -0.000117434 8.13436 5.32309e-08 7.64479C0.00011754 7.15523 0.19471 6.68576 0.54097 6.33966C0.88723 5.99357 1.35679 5.7992 1.84636 5.79932C2.33593 5.79944 2.8054 5.99403 3.15149 6.34029L8.30237 11.4924L16.8475 0.604281C16.863 0.584469 16.8798 0.565639 16.8976 0.547898L16.8964 0.546645Z" fill="#F7F7F7"/>
</svg>
