<svg width="13" height="14" viewBox="0 0 13 14" fill="none" xmlns="http://www.w3.org/2000/svg">
<path d="M2.76 14C2.62667 14 2.51333 13.96 2.42 13.88C2.34 13.7867 2.3 13.6733 2.3 13.54V10.98H0.76C0.626667 10.98 0.513333 10.94 0.42 10.86C0.34 10.7667 0.3 10.6533 0.3 10.52V10.06C0.3 9.92667 0.34 9.82 0.42 9.74C0.513333 9.64667 0.626667 9.6 0.76 9.6H2.3V8.46H0.76C0.626667 8.46 0.513333 8.42 0.42 8.34C0.34 8.24667 0.3 8.13333 0.3 8V7.32C0.3 7.18667 0.34 7.08 0.42 7C0.513333 6.90667 0.626667 6.86 0.76 6.86H2.3V0.479999C2.3 0.333332 2.34 0.219999 2.42 0.14C2.51333 0.0466659 2.62667 -9.53674e-07 2.76 -9.53674e-07H7.84C9.34667 -9.53674e-07 10.5333 0.366666 11.4 1.1C12.2667 1.83333 12.7 2.89333 12.7 4.28C12.7 5.64 12.2667 6.68 11.4 7.4C10.5467 8.10667 9.36 8.46 7.84 8.46H4.3V9.6H8.16C8.29333 9.6 8.4 9.64667 8.48 9.74C8.57333 9.82 8.62 9.92667 8.62 10.06V10.52C8.62 10.6533 8.57333 10.7667 8.48 10.86C8.4 10.94 8.29333 10.98 8.16 10.98H4.3V13.54C4.3 13.6733 4.25333 13.7867 4.16 13.88C4.06667 13.96 3.95333 14 3.82 14H2.76ZM7.74 6.86C8.71333 6.86 9.44667 6.64 9.94 6.2C10.4467 5.76 10.7 5.12 10.7 4.28C10.7 3.44 10.4533 2.8 9.96 2.36C9.46667 1.90667 8.72667 1.68 7.74 1.68H4.28V6.86H7.74Z" fill="#9FA1B7"/>
</svg>
