<svg width="23" height="22" viewBox="0 0 23 22" fill="none" xmlns="http://www.w3.org/2000/svg">
<path d="M21.5135 21.2204C20.7127 22.0213 19.4142 22.0213 18.6133 21.2204L0.935621 3.54275C0.134741 2.74187 0.134741 1.44338 0.935621 0.642504C1.7365 -0.158376 3.03498 -0.158376 3.83586 0.642504L21.5135 18.3202C22.3144 19.1211 22.3144 20.4195 21.5135 21.2204Z" fill="white"/>
<path d="M22.2204 0.642719C23.0213 1.4436 23.0213 2.74208 22.2204 3.54296L4.54275 21.2206C3.74187 22.0215 2.44338 22.0215 1.6425 21.2206C0.841624 20.4197 0.841624 19.1213 1.6425 18.3204L19.3202 0.642719C20.1211 -0.158162 21.4195 -0.158161 22.2204 0.642719Z" fill="white"/>
</svg>
