<svg width="22" height="22" viewBox="0 0 22 22" fill="none" xmlns="http://www.w3.org/2000/svg">
<path d="M20.6756 19.8927C19.9601 20.6083 18.8 20.6083 18.0845 19.8928L2.29085 4.09912C1.57533 3.38359 1.57533 2.2235 2.29085 1.50797C3.00638 0.79245 4.16647 0.792449 4.882 1.50797L20.6756 17.3016C21.3912 18.0171 21.3912 19.1772 20.6756 19.8927Z" fill="#9FA1B7"/>
<path d="M21.3071 1.50845C22.0226 2.22398 22.0226 3.38407 21.3071 4.09959L5.51342 19.8932C4.7979 20.6088 3.6378 20.6088 2.92228 19.8932C2.20676 19.1777 2.20676 18.0176 2.92228 17.3021L18.7159 1.50845C19.4314 0.792927 20.5915 0.792928 21.3071 1.50845Z" fill="#9FA1B7"/>
</svg>