<svg width="21" height="25" viewBox="0 0 21 25" fill="none" xmlns="http://www.w3.org/2000/svg">
    <path d="M20.341 3.59098L17.909 1.15902C17.4871 0.737058 16.9148 0.500003 16.318 0.5L8.25 0.5C7.00734 0.5 6 1.50734 6 2.75V5H2.25C1.00734 5 0 6.00734 0 7.25V22.25C0 23.4927 1.00734 24.5 2.25 24.5H12.75C13.9927 24.5 15 23.4927 15 22.25V20H18.75C19.9927 20 21 18.9927 21 17.75V5.18197C21 4.58523 20.7629 4.01294 20.341 3.59098ZM12.4688 22.25H2.53125C2.45666 22.25 2.38512 22.2204 2.33238 22.1676C2.27963 22.1149 2.25 22.0433 2.25 21.9688V7.53125C2.25 7.45666 2.27963 7.38512 2.33238 7.33238C2.38512 7.27963 2.45666 7.25 2.53125 7.25H6V17.75C6 18.9927 7.00734 20 8.25 20H12.75V21.9688C12.75 22.0433 12.7204 22.1149 12.6676 22.1676C12.6149 22.2204 12.5433 22.25 12.4688 22.25ZM18.4688 17.75H8.53125C8.45666 17.75 8.38512 17.7204 8.33238 17.6676C8.27963 17.6149 8.25 17.5433 8.25 17.4688V3.03125C8.25 2.95666 8.27963 2.88512 8.33238 2.83238C8.38512 2.77963 8.45666 2.75 8.53125 2.75H13.5V6.875C13.5 7.49633 14.0037 8 14.625 8H18.75V17.4688C18.75 17.5433 18.7204 17.6149 18.6676 17.6676C18.6149 17.7204 18.5433 17.75 18.4688 17.75ZM18.75 5.75H15.75V2.75H16.2015C16.2761 2.75 16.3476 2.77962 16.4004 2.83236L18.6676 5.09961C18.6938 5.12573 18.7145 5.15674 18.7286 5.19086C18.7427 5.22499 18.75 5.26156 18.75 5.2985V5.75Z" fill="#6368A0"/>
</svg>