<svg width="112" height="81" viewBox="0 0 112 81" fill="none" xmlns="http://www.w3.org/2000/svg">
<line x1="52" y1="66" x2="95" y2="66" stroke="#E2005F" stroke-width="8" stroke-linecap="round"/>
<path d="M21.9764 81C20.5945 81 19.3855 80.4818 18.3491 79.4455C17.3127 78.4091 16.7945 77.1655 16.7945 75.7145V12.4964L9.22909 15.7091C8.05455 16.1927 6.94909 16.4345 5.91273 16.4345C4.39273 16.4345 3.11455 15.9509 2.07818 14.9836C1.11091 14.0164 0.627273 12.7727 0.627273 11.2527C0.627273 10.1473 0.903637 9.14545 1.45636 8.24727C2.00909 7.34908 2.87273 6.69272 4.04727 6.27818L20.2145 0.474541C20.56 0.336357 20.9055 0.23272 21.2509 0.16363C21.5964 0.0945399 21.9073 0.0599949 22.1836 0.0599949C23.7727 0.0599949 25.0164 0.578176 25.9145 1.61454C26.8818 2.58181 27.3655 3.85999 27.3655 5.44908V75.7145C27.3655 77.1655 26.8473 78.4091 25.8109 79.4455C24.7745 80.4818 23.4964 81 21.9764 81ZM64.1094 81C62.5894 81 61.3112 80.4818 60.2749 79.4455C59.2385 78.4091 58.7203 77.1309 58.7203 75.6109V5.44908C58.7203 3.85999 59.2385 2.58181 60.2749 1.61454C61.3112 0.578176 62.5894 0.0599949 64.1094 0.0599949H84.8367C90.0185 0.0599949 94.613 1.19999 98.6203 3.47999C102.628 5.75999 105.737 8.93818 107.948 13.0145C110.228 17.0218 111.368 21.6509 111.368 26.9018C111.368 31.9454 110.228 36.4364 107.948 40.3745C105.737 44.3127 102.628 47.3873 98.6203 49.5982C94.613 51.8091 90.0185 52.9145 84.8367 52.9145H69.4985V75.6109C69.4985 77.1309 68.9803 78.4091 67.944 79.4455C66.9767 80.4818 65.6985 81 64.1094 81ZM69.4985 42.9655H84.8367C89.5349 42.9655 93.404 41.48 96.444 38.5091C99.484 35.4691 101.004 31.6 101.004 26.9018C101.004 23.5854 100.313 20.6836 98.9312 18.1964C97.5494 15.64 95.6494 13.6364 93.2312 12.1854C90.813 10.7345 88.0149 10.0091 84.8367 10.0091H69.4985V42.9655Z" fill="url(#paint0_linear)"/>
<defs>
<linearGradient id="paint0_linear" x1="17.5" y1="-0.999998" x2="75" y2="81" gradientUnits="userSpaceOnUse">
<stop stop-color="#FF217E"/>
<stop offset="1" stop-color="#E2005F"/>
</linearGradient>
</defs>
</svg>
