<svg width="22" height="24" viewBox="0 0 22 24" fill="none" xmlns="http://www.w3.org/2000/svg">
<path d="M10.963 8.26688e-09C11.9468 -6.44109e-05 12.8934 0.37636 13.6086 1.05206C14.3237 1.72775 14.7532 2.65149 14.8089 3.63378L14.8148 3.85185H21.037C21.2623 3.85192 21.479 3.93747 21.6436 4.09123C21.8082 4.24498 21.9082 4.45546 21.9236 4.68015C21.9389 4.90484 21.8684 5.12698 21.7263 5.30169C21.5842 5.47639 21.381 5.59064 21.1579 5.62133L21.037 5.62963H20.0936L18.5766 21.0607C18.5006 21.8301 18.1536 22.5473 17.5976 23.0844C17.0416 23.6215 16.3128 23.9435 15.5413 23.9929L15.3327 24H6.59318C5.81981 24 5.07163 23.7249 4.48238 23.2241C3.89312 22.7232 3.50118 22.0291 3.37659 21.2658L3.34933 21.0596L1.83111 5.62963H0.888889C0.674089 5.62962 0.466558 5.55183 0.304675 5.41065C0.142792 5.26946 0.0375091 5.07443 0.00829626 4.86163L0 4.74074C9.05825e-06 4.52594 0.0777987 4.31841 0.218983 4.15653C0.360168 3.99464 0.555196 3.88936 0.768 3.86015L0.888889 3.85185H7.11111C7.11111 2.83028 7.51693 1.85054 8.23929 1.12818C8.96166 0.405819 9.94139 8.26689e-09 10.963 8.26688e-09ZM18.3076 5.62963H3.61719L5.11881 20.8853C5.15207 21.2257 5.30207 21.5441 5.54338 21.7865C5.78468 22.0289 6.10242 22.1803 6.44267 22.2151L6.59318 22.2222H15.3327C16.0439 22.2222 16.6471 21.7185 16.7846 21.0347L16.8083 20.8853L18.3064 5.62963H18.3076ZM13.037 8.88889C13.2518 8.8889 13.4594 8.96669 13.6213 9.10787C13.7831 9.24906 13.8884 9.44408 13.9176 9.65689L13.9259 9.77778V18.0741C13.9259 18.2993 13.8403 18.5161 13.6866 18.6806C13.5328 18.8452 13.3223 18.9453 13.0976 18.9606C12.8729 18.976 12.6508 18.9055 12.4761 18.7633C12.3014 18.6212 12.1871 18.4181 12.1564 18.195L12.1481 18.0741V9.77778C12.1481 9.54203 12.2418 9.31594 12.4085 9.14924C12.5752 8.98254 12.8013 8.88889 13.037 8.88889ZM8.88889 8.88889C9.10369 8.8889 9.31122 8.96669 9.4731 9.10787C9.63499 9.24906 9.74027 9.44408 9.76948 9.65689L9.77778 9.77778V18.0741C9.77771 18.2993 9.69215 18.5161 9.5384 18.6806C9.38465 18.8452 9.17416 18.9453 8.94948 18.9606C8.72479 18.976 8.50265 18.9055 8.32794 18.7633C8.15324 18.6212 8.03899 18.4181 8.0083 18.195L8 18.0741V9.77778C8 9.54203 8.09365 9.31594 8.26035 9.14924C8.42705 8.98254 8.65314 8.88889 8.88889 8.88889ZM10.963 1.77778C10.4424 1.7778 9.94096 1.97354 9.55805 2.32614C9.17515 2.67874 8.93883 3.16243 8.896 3.68119L8.88889 3.85185H13.037C13.037 3.30177 12.8185 2.77422 12.4296 2.38526C12.0406 1.9963 11.513 1.77778 10.963 1.77778Z" fill="#6368A0"/>
</svg>
