<svg width="21" height="21" viewBox="0 0 21 21" fill="none" xmlns="http://www.w3.org/2000/svg">
<path d="M19.49 3.23011L15 0.670108C14.848 0.582339 14.6755 0.536133 14.5 0.536133C14.3245 0.536133 14.152 0.582339 14 0.670108L10 2.95011L6 0.670108C5.84798 0.582339 5.67554 0.536133 5.5 0.536133C5.32446 0.536133 5.15202 0.582339 5 0.670108L0.51 3.23011C0.355534 3.31693 0.226912 3.44324 0.1373 3.59611C0.0476888 3.74898 0.000305357 3.92291 0 4.10011V9.22011C0.000305357 9.3973 0.0476888 9.57124 0.1373 9.7241C0.226912 9.87697 0.355534 10.0033 0.51 10.0901L4.51 12.3601V16.9001C4.51031 17.0773 4.55769 17.2512 4.6473 17.4041C4.73691 17.557 4.86553 17.6833 5.02 17.7701L9.52 20.3301C9.67202 20.4179 9.84446 20.4641 10.02 20.4641C10.1955 20.4641 10.368 20.4179 10.52 20.3301L15 17.7701C15.1545 17.6833 15.2831 17.557 15.3727 17.4041C15.4623 17.2512 15.5097 17.0773 15.51 16.9001V12.3601L19.51 10.0901C19.6645 10.0033 19.7931 9.87697 19.8827 9.7241C19.9723 9.57124 20.0197 9.3973 20.02 9.22011V4.10011C20.0177 3.92091 19.9673 3.74561 19.8741 3.59256C19.7809 3.43951 19.6482 3.31432 19.49 3.23011ZM2 8.64011V4.64011L5.5 2.64011L9 4.64011V8.64011L5.5 10.6401L2 8.64011ZM13.5 16.3201L10 18.3201L6.5 16.3201V12.3201L10 10.3201L13.5 12.3201V16.3201ZM18 8.64011L14.5 10.6401L11 8.64011V4.64011L14.5 2.64011L18 4.64011V8.64011Z" fill="#9FA1B7"/>
</svg>
