<svg width="24" height="26" viewBox="0 0 24 26" fill="none" xmlns="http://www.w3.org/2000/svg">
<path d="M3.17964 9.72727V1H19L22.8182 4.81818V25H2.09091M17.3636 1V6.45455H22.8182M5.36364 14.0909H3.18182C2.09091 14.0909 1 14.6364 1 15.7273V19C1 20.0909 2.09091 20.6364 3.18182 20.6364H5.36364M12.1818 14.0909H9.45455C7.81818 14.0909 7.27273 14.6364 7.27273 15.7273C7.27273 16.8182 7.81818 17.3636 9.45455 17.3636C11.0909 17.3636 11.6364 17.9091 11.6364 19C11.6364 20.0909 11.0909 20.6364 9.45455 20.6364H6.72727M20.0909 13V13.5455C20.0909 14.0909 17.3636 20.6364 17.3636 20.6364H16.8182C16.8182 20.6364 14.0909 14.0909 14.0909 13.5455V13" stroke="#6368A0" stroke-width="2"/>
</svg>
