<svg width="17" height="17" viewBox="0 0 17 17" fill="none" xmlns="http://www.w3.org/2000/svg">
<path d="M7.6499 7.6332C7.6499 7.40777 7.73946 7.19157 7.89886 7.03216C8.05827 6.87276 8.27447 6.7832 8.4999 6.7832C8.72534 6.7832 8.94154 6.87276 9.10094 7.03216C9.26035 7.19157 9.3499 7.40777 9.3499 7.6332V12.7332C9.3499 12.9586 9.26035 13.1748 9.10094 13.3342C8.94154 13.4937 8.72534 13.5832 8.4999 13.5832C8.27447 13.5832 8.05827 13.4937 7.89886 13.3342C7.73946 13.1748 7.6499 12.9586 7.6499 12.7332V7.6332Z" fill="#6368A0"/>
<path d="M8.4999 3.44336C8.27447 3.44336 8.05827 3.53291 7.89886 3.69232C7.73946 3.85172 7.6499 4.06793 7.6499 4.29336C7.6499 4.51879 7.73946 4.73499 7.89886 4.8944C8.05827 5.05381 8.27447 5.14336 8.4999 5.14336C8.72534 5.14336 8.94154 5.05381 9.10094 4.8944C9.26035 4.73499 9.3499 4.51879 9.3499 4.29336C9.3499 4.06793 9.26035 3.85172 9.10094 3.69232C8.94154 3.53291 8.72534 3.44336 8.4999 3.44336Z" fill="#6368A0"/>
<path fill-rule="evenodd" clip-rule="evenodd" d="M8.5 0C3.80545 0 0 3.80545 0 8.5C0 13.1946 3.80545 17 8.5 17C13.1946 17 17 13.1946 17 8.5C17 3.80545 13.1946 0 8.5 0ZM1.7 8.5C1.7 10.3035 2.41643 12.0331 3.69167 13.3083C4.96692 14.5836 6.69653 15.3 8.5 15.3C10.3035 15.3 12.0331 14.5836 13.3083 13.3083C14.5836 12.0331 15.3 10.3035 15.3 8.5C15.3 6.69653 14.5836 4.96692 13.3083 3.69167C12.0331 2.41643 10.3035 1.7 8.5 1.7C6.69653 1.7 4.96692 2.41643 3.69167 3.69167C2.41643 4.96692 1.7 6.69653 1.7 8.5Z" fill="#6368A0"/>
</svg>
