<svg width="19" height="19" viewBox="0 0 19 19" fill="none" xmlns="http://www.w3.org/2000/svg">
<path d="M8.5498 8.53105C8.5498 8.2791 8.64989 8.03746 8.82805 7.8593C9.00621 7.68114 9.24785 7.58105 9.4998 7.58105C9.75176 7.58105 9.9934 7.68114 10.1716 7.8593C10.3497 8.03746 10.4498 8.2791 10.4498 8.53105V14.2311C10.4498 14.483 10.3497 14.7246 10.1716 14.9028C9.9934 15.081 9.75176 15.1811 9.4998 15.1811C9.24785 15.1811 9.00621 15.081 8.82805 14.9028C8.64989 14.7246 8.5498 14.483 8.5498 14.2311V8.53105Z" fill="white"/>
<path d="M9.4998 3.84863C9.24785 3.84863 9.00621 3.94872 8.82805 4.12688C8.64989 4.30504 8.5498 4.54668 8.5498 4.79863C8.5498 5.05059 8.64989 5.29222 8.82805 5.47038C9.00621 5.64854 9.24785 5.74863 9.4998 5.74863C9.75176 5.74863 9.9934 5.64854 10.1716 5.47038C10.3497 5.29222 10.4498 5.05059 10.4498 4.79863C10.4498 4.54668 10.3497 4.30504 10.1716 4.12688C9.9934 3.94872 9.75176 3.84863 9.4998 3.84863Z" fill="white"/>
<path fill-rule="evenodd" clip-rule="evenodd" d="M9.5 0C4.25315 0 0 4.25315 0 9.5C0 14.7469 4.25315 19 9.5 19C14.7469 19 19 14.7469 19 9.5C19 4.25315 14.7469 0 9.5 0ZM1.9 9.5C1.9 11.5156 2.70071 13.4487 4.12599 14.874C5.55126 16.2993 7.48435 17.1 9.5 17.1C11.5156 17.1 13.4487 16.2993 14.874 14.874C16.2993 13.4487 17.1 11.5156 17.1 9.5C17.1 7.48435 16.2993 5.55126 14.874 4.12599C13.4487 2.70071 11.5156 1.9 9.5 1.9C7.48435 1.9 5.55126 2.70071 4.12599 4.12599C2.70071 5.55126 1.9 7.48435 1.9 9.5Z" fill="white"/>
</svg>