<svg width="16" height="21" viewBox="0 0 16 21" fill="none" xmlns="http://www.w3.org/2000/svg">
<path d="M14 0.5H4C2.93913 0.5 1.92172 0.921427 1.17157 1.67157C0.421427 2.42172 0 3.43913 0 4.5V16.5C0 17.5609 0.421427 18.5783 1.17157 19.3284C1.92172 20.0786 2.93913 20.5 4 20.5H14C14.5304 20.5 15.0391 20.2893 15.4142 19.9142C15.7893 19.5391 16 19.0304 16 18.5V2.5C16 1.96957 15.7893 1.46086 15.4142 1.08579C15.0391 0.710714 14.5304 0.5 14 0.5ZM2 4.5C2 3.96957 2.21071 3.46086 2.58579 3.08579C2.96086 2.71071 3.46957 2.5 4 2.5H14V12.5H4C3.29504 12.503 2.60399 12.6964 2 13.06V4.5ZM4 18.5C3.46957 18.5 2.96086 18.2893 2.58579 17.9142C2.21071 17.5391 2 17.0304 2 16.5C2 15.9696 2.21071 15.4609 2.58579 15.0858C2.96086 14.7107 3.46957 14.5 4 14.5H14V18.5H4ZM6 6.5H10C10.2652 6.5 10.5196 6.39464 10.7071 6.20711C10.8946 6.01957 11 5.76522 11 5.5C11 5.23478 10.8946 4.98043 10.7071 4.79289C10.5196 4.60536 10.2652 4.5 10 4.5H6C5.73478 4.5 5.48043 4.60536 5.29289 4.79289C5.10536 4.98043 5 5.23478 5 5.5C5 5.76522 5.10536 6.01957 5.29289 6.20711C5.48043 6.39464 5.73478 6.5 6 6.5Z" fill="#9FA1B7"/>
</svg>
