<svg width="12" height="13" viewBox="0 0 12 13" fill="none" xmlns="http://www.w3.org/2000/svg">
<path d="M2.484 13C2.364 13 2.262 12.964 2.178 12.892C2.106 12.808 2.07 12.706 2.07 12.586V10.246H0.684C0.564 10.246 0.462 10.21 0.378 10.138C0.306 10.054 0.27 9.952 0.27 9.832V9.436C0.27 9.316 0.306 9.22 0.378 9.148C0.462 9.064 0.564 9.022 0.684 9.022H2.07V7.996H0.684C0.564 7.996 0.462 7.96 0.378 7.888C0.306 7.804 0.27 7.702 0.27 7.582V7.006C0.27 6.886 0.306 6.79 0.378 6.718C0.462 6.634 0.564 6.592 0.684 6.592H2.07V0.831999C2.07 0.699999 2.106 0.597999 2.178 0.526C2.25 0.441999 2.352 0.399999 2.484 0.399999H7.038C8.394 0.399999 9.456 0.729999 10.224 1.39C11.004 2.038 11.394 2.986 11.394 4.234C11.394 5.458 11.004 6.394 10.224 7.042C9.456 7.678 8.394 7.996 7.038 7.996H3.798V9.022H7.326C7.446 9.022 7.542 9.064 7.614 9.148C7.698 9.22 7.74 9.316 7.74 9.436V9.832C7.74 9.952 7.698 10.054 7.614 10.138C7.542 10.21 7.446 10.246 7.326 10.246H3.798V12.586C3.798 12.706 3.756 12.808 3.672 12.892C3.588 12.964 3.486 13 3.366 13H2.484ZM6.948 6.592C7.848 6.592 8.526 6.394 8.982 5.998C9.438 5.602 9.666 5.014 9.666 4.234C9.666 3.478 9.438 2.896 8.982 2.488C8.526 2.068 7.848 1.858 6.948 1.858H3.78V6.592H6.948Z" fill="#B4B8ED"/>
</svg>
