<svg width="13" height="16" viewBox="0 0 13 16" fill="none" xmlns="http://www.w3.org/2000/svg">
<path d="M11.2 0H3.2C2.35131 0 1.53737 0.337142 0.937258 0.937258C0.337142 1.53737 0 2.35131 0 3.2V12.8C0 13.6487 0.337142 14.4626 0.937258 15.0627C1.53737 15.6629 2.35131 16 3.2 16H11.2C11.6243 16 12.0313 15.8314 12.3314 15.5314C12.6314 15.2313 12.8 14.8243 12.8 14.4V1.6C12.8 1.17565 12.6314 0.768687 12.3314 0.468629C12.0313 0.168571 11.6243 0 11.2 0ZM1.6 3.2C1.6 2.77565 1.76857 2.36869 2.06863 2.06863C2.36869 1.76857 2.77565 1.6 3.2 1.6H11.2V9.6H3.2C2.63603 9.60236 2.08319 9.75716 1.6 10.048V3.2ZM3.2 14.4C2.77565 14.4 2.36869 14.2314 2.06863 13.9314C1.76857 13.6313 1.6 13.2243 1.6 12.8C1.6 12.3757 1.76857 11.9687 2.06863 11.6686C2.36869 11.3686 2.77565 11.2 3.2 11.2H11.2V14.4H3.2ZM4.8 4.8H8C8.21217 4.8 8.41566 4.71571 8.56569 4.56569C8.71571 4.41566 8.8 4.21217 8.8 4C8.8 3.78783 8.71571 3.58434 8.56569 3.43431C8.41566 3.28429 8.21217 3.2 8 3.2H4.8C4.58783 3.2 4.38434 3.28429 4.23431 3.43431C4.08429 3.58434 4 3.78783 4 4C4 4.21217 4.08429 4.41566 4.23431 4.56569C4.38434 4.71571 4.58783 4.8 4.8 4.8Z" fill="#B4B8ED"/>
</svg>
