<svg width="16" height="16" viewBox="0 0 16 16" fill="none" xmlns="http://www.w3.org/2000/svg">
<path d="M15.5764 2.16297L11.988 0.107567C11.8665 0.0370988 11.7287 0 11.5884 0C11.4481 0 11.3103 0.0370988 11.1888 0.107567L7.99201 1.93816L4.7952 0.107567C4.67371 0.0370988 4.53589 0 4.3956 0C4.25532 0 4.1175 0.0370988 3.996 0.107567L0.407592 2.16297C0.284143 2.23268 0.181348 2.3341 0.109731 2.45683C0.0381129 2.57957 0.000244041 2.71922 0 2.86149V6.9723C0.000244041 7.11457 0.0381129 7.25422 0.109731 7.37695C0.181348 7.49969 0.284143 7.6011 0.407592 7.67081L3.6044 9.49338V13.1385C3.60464 13.2808 3.64251 13.4204 3.71413 13.5432C3.78574 13.6659 3.88854 13.7673 4.01199 13.837L7.60839 15.8924C7.72989 15.9629 7.8677 16 8.00799 16C8.14828 16 8.2861 15.9629 8.40759 15.8924L11.988 13.837C12.1115 13.7673 12.2143 13.6659 12.2859 13.5432C12.3575 13.4204 12.3954 13.2808 12.3956 13.1385V9.49338L15.5924 7.67081C15.7159 7.6011 15.8187 7.49969 15.8903 7.37695C15.9619 7.25422 15.9998 7.11457 16 6.9723V2.86149C15.9982 2.71761 15.9579 2.57687 15.8834 2.45398C15.8089 2.3311 15.7029 2.23059 15.5764 2.16297ZM1.5984 6.50662V3.29505L4.3956 1.68927L7.19281 3.29505V6.50662L4.3956 8.11241L1.5984 6.50662ZM10.7892 12.6728L7.99201 14.2786L5.19481 12.6728V9.46126L7.99201 7.85548L10.7892 9.46126V12.6728ZM14.3856 6.50662L11.5884 8.11241L8.79121 6.50662V3.29505L11.5884 1.68927L14.3856 3.29505V6.50662Z" fill="#B4B8ED"/>
</svg>
