<svg width="14" height="18" viewBox="0 0 14 18" fill="none" xmlns="http://www.w3.org/2000/svg">
<path d="M11.375 1.75H10.5C10.5 1.28587 10.3156 0.840752 9.98744 0.512563C9.65925 0.184374 9.21413 0 8.75 0H5.25C4.78587 0 4.34075 0.184374 4.01256 0.512563C3.68437 0.840752 3.5 1.28587 3.5 1.75H2.625C1.92881 1.75 1.26113 2.02656 0.768845 2.51884C0.276562 3.01113 0 3.67881 0 4.375V14.875C0 15.5712 0.276562 16.2389 0.768845 16.7312C1.26113 17.2234 1.92881 17.5 2.625 17.5H11.375C12.0712 17.5 12.7389 17.2234 13.2312 16.7312C13.7234 16.2389 14 15.5712 14 14.875V4.375C14 3.67881 13.7234 3.01113 13.2312 2.51884C12.7389 2.02656 12.0712 1.75 11.375 1.75ZM5.25 1.75H8.75V3.5H5.25V1.75ZM12.25 14.875C12.25 15.1071 12.1578 15.3296 11.9937 15.4937C11.8296 15.6578 11.6071 15.75 11.375 15.75H2.625C2.39294 15.75 2.17038 15.6578 2.00628 15.4937C1.84219 15.3296 1.75 15.1071 1.75 14.875V4.375C1.75 4.14294 1.84219 3.92038 2.00628 3.75628C2.17038 3.59219 2.39294 3.5 2.625 3.5H3.5C3.5 3.96413 3.68437 4.40925 4.01256 4.73744C4.34075 5.06563 4.78587 5.25 5.25 5.25H8.75C9.21413 5.25 9.65925 5.06563 9.98744 4.73744C10.3156 4.40925 10.5 3.96413 10.5 3.5H11.375C11.6071 3.5 11.8296 3.59219 11.9937 3.75628C12.1578 3.92038 12.25 4.14294 12.25 4.375V14.875Z" fill="white"/>
</svg>
