<svg width="16" height="21" viewBox="0 0 16 21" fill="none" xmlns="http://www.w3.org/2000/svg">
<path d="M13 2.5H12C12 1.96957 11.7893 1.46086 11.4142 1.08579C11.0391 0.710714 10.5304 0.5 10 0.5H6C5.46957 0.5 4.96086 0.710714 4.58579 1.08579C4.21071 1.46086 4 1.96957 4 2.5H3C2.20435 2.5 1.44129 2.81607 0.87868 3.37868C0.316071 3.94129 0 4.70435 0 5.5V17.5C0 18.2956 0.316071 19.0587 0.87868 19.6213C1.44129 20.1839 2.20435 20.5 3 20.5H13C13.7956 20.5 14.5587 20.1839 15.1213 19.6213C15.6839 19.0587 16 18.2956 16 17.5V5.5C16 4.70435 15.6839 3.94129 15.1213 3.37868C14.5587 2.81607 13.7956 2.5 13 2.5ZM6 2.5H10V4.5H6V2.5ZM14 17.5C14 17.7652 13.8946 18.0196 13.7071 18.2071C13.5196 18.3946 13.2652 18.5 13 18.5H3C2.73478 18.5 2.48043 18.3946 2.29289 18.2071C2.10536 18.0196 2 17.7652 2 17.5V5.5C2 5.23478 2.10536 4.98043 2.29289 4.79289C2.48043 4.60536 2.73478 4.5 3 4.5H4C4 5.03043 4.21071 5.53914 4.58579 5.91421C4.96086 6.28929 5.46957 6.5 6 6.5H10C10.5304 6.5 11.0391 6.28929 11.4142 5.91421C11.7893 5.53914 12 5.03043 12 4.5H13C13.2652 4.5 13.5196 4.60536 13.7071 4.79289C13.8946 4.98043 14 5.23478 14 5.5V17.5Z" fill="#9FA1B7"/>
</svg>
