<svg width="26" height="22" viewBox="0 0 26 22" fill="none" xmlns="http://www.w3.org/2000/svg">
<path d="M12.6025 6.95309H12.7654C13.707 6.95309 14.5218 7.29712 15.2099 7.98518C15.8979 8.67325 16.242 9.48807 16.242 10.4296V10.6469L12.6025 6.95309ZM7.60494 7.87654C7.17037 8.74568 6.95309 9.59671 6.95309 10.4296C6.95309 12.023 7.5144 13.3992 8.63704 14.558C9.79588 15.6807 11.172 16.242 12.7654 16.242C13.5984 16.242 14.4494 16.0247 15.3185 15.5901L13.5259 13.7975C13.2362 13.87 12.9827 13.9062 12.7654 13.9062C11.8239 13.9062 11.0091 13.5621 10.321 12.8741C9.63292 12.186 9.28889 11.3712 9.28889 10.4296C9.28889 10.2123 9.3251 9.95885 9.39753 9.66914L7.60494 7.87654ZM1.19506 1.46667L2.66173 0L23.1951 20.5333L21.7284 22C21.5473 21.8189 20.9679 21.2576 19.9901 20.316C19.0486 19.3745 18.3243 18.6502 17.8173 18.1432C16.2601 18.7951 14.5761 19.121 12.7654 19.121C9.90453 19.121 7.31523 18.3243 4.99753 16.7309C2.67984 15.1374 1.01399 13.037 0 10.4296C0.90535 8.18436 2.35391 6.26502 4.34568 4.6716C3.91111 4.23704 3.29547 3.6214 2.49877 2.82469C1.73827 2.02798 1.3037 1.57531 1.19506 1.46667ZM12.7654 4.61728C12.0412 4.61728 11.335 4.76214 10.6469 5.05185L8.14815 2.55309C9.56049 2.00988 11.0996 1.73827 12.7654 1.73827C15.6263 1.73827 18.1975 2.53498 20.479 4.1284C22.7967 5.72181 24.4626 7.82222 25.4765 10.4296C24.6074 12.5663 23.2856 14.3951 21.5111 15.916L18.1432 12.5481C18.4329 11.8601 18.5778 11.1539 18.5778 10.4296C18.5778 8.83621 17.9984 7.47819 16.8395 6.35556C15.7169 5.19671 14.3588 4.61728 12.7654 4.61728Z" fill="#B7B7B7"/>
</svg>
