<svg width="18" height="15" viewBox="0 0 18 15" fill="none" xmlns="http://www.w3.org/2000/svg">
<path d="M14.7843 0.693647C15.0847 0.390469 15.4929 0.218519 15.9196 0.215376C16.3464 0.212232 16.757 0.378151 17.0619 0.676871C17.3667 0.975591 17.5408 1.38282 17.5463 1.80956C17.5517 2.23631 17.3881 2.64786 17.091 2.95428L8.49576 13.6994C8.3481 13.8584 8.16991 13.986 7.97185 14.0746C7.77378 14.1632 7.5599 14.211 7.34296 14.215C7.12602 14.2191 6.91049 14.1795 6.70922 14.0984C6.50795 14.0174 6.32508 13.8966 6.17153 13.7433L0.472801 8.04674C0.169969 7.74376 -0.000102754 7.3329 4.6577e-08 6.90453C0.000102848 6.47615 0.170371 6.06537 0.473349 5.76254C0.776326 5.4597 1.18719 5.28963 1.61557 5.28974C2.04394 5.28984 2.45472 5.46011 2.75756 5.76308L7.26458 10.2712L14.7416 0.744078C14.7551 0.726742 14.7698 0.710266 14.7854 0.694743L14.7843 0.693647Z" fill="white"/>
</svg>
