<svg width="24" height="24" viewBox="0 0 24 24" fill="none" xmlns="http://www.w3.org/2000/svg">
    <path d="M20.4 12H12V3.6C12 2.88 11.52 2.4 10.8 2.4C4.8 2.4 0 7.2 0 13.2C0 19.2 4.8 24 10.8 24C16.8 24 21.6 19.2 21.6 13.2C21.6 12.48 21.12 12 20.4 12ZM12 21.48C7.44 22.2 3.12 18.96 2.52 14.4C1.8 9.84 5.04 5.52 9.6 4.92V13.2C9.6 13.92 10.08 14.4 10.8 14.4H19.08C18.6 18.12 15.72 21 12 21.48ZM15.6 0C14.88 0 14.4 0.48 14.4 1.2V8.4C14.4 9.12 14.88 9.6 15.6 9.6H22.8C23.52 9.6 24 9.12 24 8.4C24 3.72 20.28 0 15.6 0ZM16.8 7.2V2.52C19.2 3 21 4.8 21.48 7.2H16.8Z" fill="#6368A0"/>
</svg>
