<svg width="38" height="38" viewBox="0 0 38 38" fill="none" xmlns="http://www.w3.org/2000/svg">
<g filter="url(#filter0_dd)">
<path d="M33.1016 15.0508C33.1016 16.1834 32.1834 17.1016 31.0508 17.1016H6.05078C4.91817 17.1016 4 16.1834 4 15.0508C4 13.9182 4.91817 13 6.05078 13H31.0508C32.1834 13 33.1016 13.9182 33.1016 15.0508Z" fill="white"/>
<path d="M19.0508 1.90735e-06C20.1834 1.90735e-06 21.1016 0.918167 21.1016 2.05078V27.0508C21.1016 28.1834 20.1834 29.1016 19.0508 29.1016C17.9182 29.1016 17 28.1834 17 27.0508V2.05078C17 0.918167 17.9182 1.90735e-06 19.0508 1.90735e-06Z" fill="white"/>
</g>
<defs>
<filter id="filter0_dd" x="0" y="0" width="37.1016" height="37.1016" filterUnits="userSpaceOnUse" color-interpolation-filters="sRGB">
<feFlood flood-opacity="0" result="BackgroundImageFix"/>
<feColorMatrix in="SourceAlpha" type="matrix" values="0 0 0 0 0 0 0 0 0 0 0 0 0 0 0 0 0 0 127 0" result="hardAlpha"/>
<feOffset dy="4"/>
<feGaussianBlur stdDeviation="2"/>
<feColorMatrix type="matrix" values="0 0 0 0 0 0 0 0 0 0 0 0 0 0 0 0 0 0 0.25 0"/>
<feBlend mode="normal" in2="BackgroundImageFix" result="effect1_dropShadow"/>
<feColorMatrix in="SourceAlpha" type="matrix" values="0 0 0 0 0 0 0 0 0 0 0 0 0 0 0 0 0 0 127 0" result="hardAlpha"/>
<feOffset dy="4"/>
<feGaussianBlur stdDeviation="2"/>
<feColorMatrix type="matrix" values="0 0 0 0 0 0 0 0 0 0 0 0 0 0 0 0 0 0 0.25 0"/>
<feBlend mode="normal" in2="effect1_dropShadow" result="effect2_dropShadow"/>
<feBlend mode="normal" in="SourceGraphic" in2="effect2_dropShadow" result="shape"/>
</filter>
</defs>
</svg>
