<svg width="18" height="19" viewBox="0 0 18 19" fill="none" xmlns="http://www.w3.org/2000/svg">
<path d="M1.5 18.5C1.5 18.5 0 18.5 0 17C0 15.5 1.5 11 9 11C16.5 11 18 15.5 18 17C18 18.5 16.5 18.5 16.5 18.5H1.5ZM9 9.5C10.1935 9.5 11.3381 9.02589 12.182 8.18198C13.0259 7.33807 13.5 6.19347 13.5 5C13.5 3.80653 13.0259 2.66193 12.182 1.81802C11.3381 0.974106 10.1935 0.5 9 0.5C7.80653 0.5 6.66193 0.974106 5.81802 1.81802C4.97411 2.66193 4.5 3.80653 4.5 5C4.5 6.19347 4.97411 7.33807 5.81802 8.18198C6.66193 9.02589 7.80653 9.5 9 9.5Z" fill="#9FA1B7"/>
</svg>
