<svg width="15" height="16" viewBox="0 0 15 16" fill="none" xmlns="http://www.w3.org/2000/svg">
<path d="M7.5 0.5C3.35826 0.5 0 3.85826 0 8C0 12.1417 3.35826 15.5 7.5 15.5C11.6417 15.5 15 12.1417 15 8C15 3.85826 11.6417 0.5 7.5 0.5ZM7.5 12.3527C7.13002 12.3527 6.83036 12.053 6.83036 11.683C6.83036 11.3131 7.13002 11.0134 7.5 11.0134C7.86998 11.0134 8.16964 11.3131 8.16964 11.683C8.16964 12.053 7.86998 12.3527 7.5 12.3527ZM8.55301 8.67801C8.4014 8.73656 8.27095 8.83943 8.17868 8.97322C8.0864 9.10701 8.03658 9.26549 8.03571 9.42801V9.80804C8.03571 9.8817 7.97545 9.94196 7.90179 9.94196H7.09821C7.02455 9.94196 6.96429 9.8817 6.96429 9.80804V9.4481C6.96429 9.06138 7.07645 8.67969 7.29743 8.36161C7.51339 8.05022 7.81473 7.8125 8.16964 7.6769C8.73884 7.45759 9.10714 6.98047 9.10714 6.45982C9.10714 5.72154 8.3856 5.12054 7.5 5.12054C6.6144 5.12054 5.89286 5.72154 5.89286 6.45982V6.58705C5.89286 6.66071 5.83259 6.72098 5.75893 6.72098H4.95536C4.8817 6.72098 4.82143 6.66071 4.82143 6.58705V6.45982C4.82143 5.8019 5.10937 5.1875 5.6317 4.73047C6.13393 4.29018 6.79688 4.04911 7.5 4.04911C8.20312 4.04911 8.86607 4.29185 9.3683 4.73047C9.89062 5.1875 10.1786 5.8019 10.1786 6.45982C10.1786 7.42745 9.54074 8.29799 8.55301 8.67801Z" fill="#383E80"/>
</svg>
