<svg width="20" height="21" viewBox="0 0 20 21" fill="none" xmlns="http://www.w3.org/2000/svg">
<path d="M17 10.5H10V3.5C10 2.9 9.6 2.5 9 2.5C4 2.5 0 6.5 0 11.5C0 16.5 4 20.5 9 20.5C14 20.5 18 16.5 18 11.5C18 10.9 17.6 10.5 17 10.5ZM10 18.4C6.2 19 2.6 16.3 2.1 12.5C1.5 8.7 4.2 5.1 8 4.6V11.5C8 12.1 8.4 12.5 9 12.5H15.9C15.5 15.6 13.1 18 10 18.4ZM13 0.5C12.4 0.5 12 0.9 12 1.5V7.5C12 8.1 12.4 8.5 13 8.5H19C19.6 8.5 20 8.1 20 7.5C20 3.6 16.9 0.5 13 0.5ZM14 6.5V2.6C16 3 17.5 4.5 17.9 6.5H14Z" fill="#9FA1B7"/>
</svg>
