<svg width="28" height="21" viewBox="0 0 28 21" fill="none" xmlns="http://www.w3.org/2000/svg">
<path d="M26.3415 8.42683H23.0488V4.96341C23.0488 4.42378 22.6128 3.9878 22.0732 3.9878H12.4695L8.89329 0.567073C8.84779 0.524475 8.78794 0.500534 8.72561 0.5H0.97561C0.435976 0.5 0 0.935976 0 1.47561V19.5244C0 20.064 0.435976 20.5 0.97561 20.5H22.2561C22.6524 20.5 23.0122 20.2591 23.1616 19.8902L27.247 9.76829C27.2927 9.65244 27.3171 9.52744 27.3171 9.40244C27.3171 8.86281 26.8811 8.42683 26.3415 8.42683ZM2.19512 2.69512H7.94207L11.5884 6.18293H20.8537V8.42683H5.30488C4.90854 8.42683 4.54878 8.66768 4.39939 9.03659L2.19512 14.5V2.69512ZM21.564 18.3049H2.89634L6.04573 10.5H24.7165L21.564 18.3049Z" fill="#6368A0"/>
</svg>
