<svg width="24" height="24" viewBox="0 0 24 24" fill="none" xmlns="http://www.w3.org/2000/svg">
<path d="M14.3997 23.9986H2.40112C2.08301 24.0097 1.76602 23.9551 1.46987 23.8385C1.17372 23.7218 0.904744 23.5454 0.679667 23.3203C0.45459 23.0953 0.278226 22.8263 0.16154 22.5301C0.0448554 22.234 -0.00965467 21.917 0.00139995 21.5989V9.60028C-0.00965467 9.28217 0.0448554 8.96518 0.16154 8.66903C0.278226 8.37288 0.45459 8.1039 0.679667 7.87883C0.904744 7.65375 1.17372 7.47739 1.46987 7.3607C1.76602 7.24402 2.08301 7.18951 2.40112 7.20056H7.20056V2.40112C7.18951 2.08301 7.24402 1.76602 7.3607 1.46987C7.47739 1.17372 7.65375 0.904744 7.87883 0.679667C8.1039 0.45459 8.37288 0.278226 8.66903 0.16154C8.96518 0.0448554 9.28217 -0.00965467 9.60028 0.00139995H21.5989C21.917 -0.00965467 22.234 0.0448554 22.5301 0.16154C22.8263 0.278226 23.0953 0.45459 23.3203 0.679667C23.5454 0.904744 23.7218 1.17372 23.8385 1.46987C23.9551 1.76602 24.0097 2.08301 23.9986 2.40112V14.3997C24.0095 14.7178 23.9548 15.0347 23.8381 15.3308C23.7214 15.6268 23.545 15.8957 23.3199 16.1208C23.0949 16.3458 22.826 16.5222 22.5299 16.6389C22.2339 16.7557 21.917 16.8103 21.5989 16.7994H16.7994V21.5989C16.8103 21.917 16.7557 22.2339 16.6389 22.5299C16.5222 22.826 16.3458 23.0949 16.1208 23.3199C15.8957 23.545 15.6268 23.7214 15.3308 23.8381C15.0347 23.9548 14.7178 24.0095 14.3997 23.9986ZM2.40112 9.60028V21.5989H14.3997V16.7994H9.60028C9.28221 16.8103 8.9653 16.7557 8.66924 16.6389C8.37317 16.5222 8.10426 16.3458 7.87922 16.1208C7.65418 15.8957 7.47781 15.6268 7.36106 15.3308C7.24432 15.0347 7.18968 14.7178 7.20056 14.3997V9.60028H2.40112ZM9.60028 2.40112V14.3997H21.5989V2.40112H9.60028Z" fill="#6368A0"/>
</svg>
