<svg width="22" height="25" viewBox="0 0 22 25" fill="none" xmlns="http://www.w3.org/2000/svg">
<path d="M10.963 0.5C11.9468 0.499936 12.8934 0.87636 13.6086 1.55206C14.3237 2.22775 14.7532 3.15149 14.8089 4.13378L14.8148 4.35185H21.037C21.2623 4.35192 21.479 4.43747 21.6436 4.59123C21.8082 4.74498 21.9082 4.95546 21.9236 5.18015C21.9389 5.40484 21.8684 5.62698 21.7263 5.80169C21.5842 5.97639 21.381 6.09064 21.1579 6.12133L21.037 6.12963H20.0936L18.5766 21.5607C18.5006 22.3301 18.1536 23.0473 17.5976 23.5844C17.0416 24.1215 16.3128 24.4435 15.5413 24.4929L15.3327 24.5H6.59318C5.81981 24.5 5.07163 24.2249 4.48238 23.7241C3.89312 23.2232 3.50118 22.5291 3.37659 21.7658L3.34933 21.5596L1.83111 6.12963H0.888889C0.674089 6.12962 0.466558 6.05183 0.304675 5.91065C0.142792 5.76946 0.0375091 5.57443 0.00829626 5.36163L0 5.24074C9.05825e-06 5.02594 0.0777987 4.81841 0.218983 4.65653C0.360168 4.49464 0.555196 4.38936 0.768 4.36015L0.888889 4.35185H7.11111C7.11111 3.33028 7.51693 2.35054 8.23929 1.62818C8.96166 0.905819 9.94139 0.5 10.963 0.5ZM18.3076 6.12963H3.61719L5.11881 21.3853C5.15207 21.7257 5.30207 22.0441 5.54338 22.2865C5.78468 22.5289 6.10242 22.6803 6.44267 22.7151L6.59318 22.7222H15.3327C16.0439 22.7222 16.6471 22.2185 16.7846 21.5347L16.8083 21.3853L18.3064 6.12963H18.3076ZM13.037 9.38889C13.2518 9.3889 13.4594 9.46669 13.6213 9.60787C13.7831 9.74906 13.8884 9.94408 13.9176 10.1569L13.9259 10.2778V18.5741C13.9259 18.7993 13.8403 19.0161 13.6866 19.1806C13.5328 19.3452 13.3223 19.4453 13.0976 19.4606C12.8729 19.476 12.6508 19.4055 12.4761 19.2633C12.3014 19.1212 12.1871 18.9181 12.1564 18.695L12.1481 18.5741V10.2778C12.1481 10.042 12.2418 9.81594 12.4085 9.64924C12.5752 9.48254 12.8013 9.38889 13.037 9.38889ZM8.88889 9.38889C9.10369 9.3889 9.31122 9.46669 9.4731 9.60787C9.63499 9.74906 9.74027 9.94408 9.76948 10.1569L9.77778 10.2778V18.5741C9.77771 18.7993 9.69215 19.0161 9.5384 19.1806C9.38465 19.3452 9.17416 19.4453 8.94948 19.4606C8.72479 19.476 8.50265 19.4055 8.32794 19.2633C8.15324 19.1212 8.03899 18.9181 8.0083 18.695L8 18.5741V10.2778C8 10.042 8.09365 9.81594 8.26035 9.64924C8.42705 9.48254 8.65314 9.38889 8.88889 9.38889ZM10.963 2.27778C10.4424 2.2778 9.94096 2.47354 9.55805 2.82614C9.17515 3.17874 8.93883 3.66243 8.896 4.18119L8.88889 4.35185H13.037C13.037 3.80177 12.8185 3.27422 12.4296 2.88526C12.0406 2.4963 11.513 2.27778 10.963 2.27778Z" fill="#6368A0"/>
</svg>
